<?xml version="1.0" encoding="utf-8"?>
<!-- Generator: Adobe Illustrator 19.0.0, SVG Export Plug-In . SVG Version: 6.00 Build 0)  -->
<svg version="1.1" id="Layer_1" xmlns="http://www.w3.org/2000/svg" xmlns:xlink="http://www.w3.org/1999/xlink" x="0px" y="0px"
	 width="250.1px" height="60.7px" viewBox="-176.5 336.3 250.1 60.7" enable-background="new -176.5 336.3 250.1 60.7"
	 xml:space="preserve">
<path id="XMLID_211_" fill="#9a1b1f" d="M-102.9,363.2c0-1.7-1.4-3.1-3.2-3.1h-3.6c-1.8,0-3.2,1.4-3.2,3.1v2.8
	c0,1.7,1.4,3.1,3.2,3.1h3.6c1.8,0,3.2-1.4,3.2-3.1V363.2z"/>
<path id="XMLID_210_" fill="#9a1b1f" d="M32.3,361.8c-3.1-1.4-6.5-2.1-9.9-2.1c-4.7,0-8.4,1.4-10,2.1l-6.6-16.1l10,7.9l7.1-15.5
	l6.6,15.4l9.4-7.8L32.3,361.8z"/>
<path id="XMLID_207_" fill="#9a1b1f" d="M23,336.3l-0.4,0.6l-7,15.3L5,343.9l-0.6-0.4H4.3l0.1,0.7l7.7,18.7c0,0,4.3-2.4,10.4-2.4
	c3.1,0,6.6,0.6,10.3,2.4l7.6-18.6l0.2-0.8l0,0l-0.7,0.4l-10,8.3L23.4,337L23,336.3z M22.9,340.1l5.4,12.7l0.9,2l1.7-1.4l5.9-4.9
	l-5,12.2c-3-1.2-6.2-1.8-9.4-1.8c-4.2,0-7.6,1.1-9.5,1.8l-5.1-12.5l6.6,5.3l1.7,1.3l0.9-1.9L22.9,340.1z"/>
<path id="XMLID_206_" fill="#9a1b1f" d="M39.8,344.5L32.4,362c-10.7-5.1-20,0-20,0L5,344.4l-0.1-0.6l0.7,0.3l10.2,7.9l6.8-14.5
	l0.4-0.6l0.4,0.6l6.3,14.3l9.7-7.8l0.7-0.4L39.8,344.5z"/>
<path id="XMLID_205_" fill="#9a1b1f" d="M-117.2,359.4h-13.5c-0.5,0-0.8,0.4-0.8,0.8v7.1c0,0.4,0.4,0.8,0.8,0.8h1
	c0.5,0,0.7,0.3,0.6,0.8l-4,14.1l-0.2,0.3l-0.3-0.3l-5.1-14.1c-0.2-0.4,0.1-0.8,0.6-0.8h1.1c0.5,0,0.8-0.4,0.8-0.8v-7.1
	c0-0.4-0.4-0.8-0.8-0.8h-14.8c-0.5,0-0.8,0.4-0.8,0.8v7.1c0,0.4,0.4,0.8,0.8,0.8h1.1c0.4,0,0.7,0.3,0.6,0.8l-5.1,14.1l-0.3,0.3
	l-0.2-0.3l-4-14.1c-0.1-0.4,0.2-0.8,0.6-0.8h1.1c0.5,0,0.8-0.4,0.8-0.8v-7.1c0-0.4-0.4-0.8-0.8-0.8h-17.7c-0.5,0-0.8,0.4-0.8,0.8
	v7.1c0,0.4,0.4,0.8,0.8,0.8h0.9c0.5,0,1,0.3,1.1,0.8l10,26.5c0.2,0.4,0.7,0.8,1.1,0.8h10.2c0.5,0,1-0.3,1.1-0.8l4.6-12.5l0.3-0.3
	l0.3,0.3l4.5,12.5c0.2,0.4,0.7,0.8,1.1,0.8h10c0.5,0,1-0.3,1.1-0.8l10.1-26.5c0.2-0.4,0.7-0.8,1.1-0.8h0.9c0.5,0,0.8-0.4,0.8-0.8
	v-7.1C-116.4,359.8-116.8,359.4-117.2,359.4"/>
<path id="XMLID_204_" fill="#9a1b1f" d="M-117.2,359.4h-13.5c-0.5,0-0.8,0.4-0.8,0.8v7.1c0,0.4,0.4,0.8,0.8,0.8h1
	c0.5,0,0.7,0.3,0.6,0.8l-4,14.1l-0.2,0.3l-0.3-0.3l-5.1-14.1c-0.2-0.4,0.1-0.8,0.6-0.8h1.1c0.5,0,0.8-0.4,0.8-0.8v-7.1
	c0-0.4-0.4-0.8-0.8-0.8h-14.8c-0.5,0-0.8,0.4-0.8,0.8v7.1c0,0.4,0.4,0.8,0.8,0.8h1.1c0.4,0,0.7,0.3,0.6,0.8l-5.1,14.1l-0.3,0.3
	l-0.2-0.3l-4-14.1c-0.1-0.4,0.2-0.8,0.6-0.8h1.1c0.5,0,0.8-0.4,0.8-0.8v-7.1c0-0.4-0.4-0.8-0.8-0.8h-17.7c-0.5,0-0.8,0.4-0.8,0.8
	v7.1c0,0.4,0.4,0.8,0.8,0.8h0.9c0.5,0,1,0.3,1.1,0.8l10,26.5c0.2,0.4,0.7,0.8,1.1,0.8h10.2c0.5,0,1-0.3,1.1-0.8l4.6-12.5l0.3-0.3
	l0.3,0.3l4.5,12.5c0.2,0.4,0.7,0.8,1.1,0.8h10c0.5,0,1-0.3,1.1-0.8l10.1-26.5c0.2-0.4,0.7-0.8,1.1-0.8h0.9c0.5,0,0.8-0.4,0.8-0.8
	v-7.1C-116.4,359.8-116.8,359.4-117.2,359.4"/>
<polygon id="XMLID_203_" fill="#9a1b1f" points="22.9,338.6 22.7,339 23.2,339 23,338.6 "/>
<polygon id="XMLID_202_" fill="#9a1b1f" points="22.3,339.8 22.2,340.2 23.7,340.2 23.5,339.8 "/>
<polygon id="XMLID_201_" fill="#9a1b1f" points="21.8,340.9 21.7,341.3 24.2,341.4 24,341 "/>
<polygon id="XMLID_200_" fill="#9a1b1f" points="21.3,342.1 21.2,342.5 24.7,342.5 24.5,342.1 "/>
<polygon id="XMLID_199_" fill="#9a1b1f" points="20.8,343.3 20.7,343.6 20.7,343.7 25.2,343.7 25,343.3 "/>
<polygon id="XMLID_198_" fill="#9a1b1f" points="20.3,344.5 20.1,344.9 25.7,344.9 25.5,344.5 "/>
<polygon id="XMLID_197_" fill="#9a1b1f" points="19.8,345.6 19.6,346 26.2,346.1 26,345.7 "/>
<path id="XMLID_196_" fill="#9a1b1f" d="M6.2,346L6.2,346L6.2,346z"/>
<polygon id="XMLID_195_" fill="#9a1b1f" points="19.3,346.8 19.1,347.2 26.6,347.2 26.5,346.8 "/>
<polygon id="XMLID_194_" fill="#9a1b1f" points="38,346.9 37.5,347.3 38.1,347.3 38.2,346.9 "/>
<polygon id="XMLID_193_" fill="#9a1b1f" points="7.6,347.2 7.1,346.8 6.5,346.8 6.7,347.2 "/>
<polygon id="XMLID_192_" fill="#9a1b1f" points="9,348.3 8.5,347.9 7,347.9 7.2,348.3 "/>
<polygon id="XMLID_191_" fill="#9a1b1f" points="36.6,348 36.1,348.4 37.6,348.5 37.7,348.1 "/>
<polygon id="XMLID_190_" fill="#9a1b1f" points="18.8,348 18.6,348.4 27.1,348.4 27,348 "/>
<polygon id="XMLID_189_" fill="#9a1b1f" points="18.2,349.2 18.1,349.6 27.6,349.6 27.5,349.2 "/>
<polygon id="XMLID_188_" fill="#9a1b1f" points="10.4,349.5 9.9,349.1 7.5,349.1 7.7,349.5 "/>
<polygon id="XMLID_187_" fill="#9a1b1f" points="35.2,349.2 34.7,349.6 37.1,349.6 37.3,349.2 "/>
<polygon id="XMLID_186_" fill="#9a1b1f" points="33.8,350.4 33.3,350.8 36.6,350.8 36.8,350.4 "/>
<polygon id="XMLID_185_" fill="#9a1b1f" points="11.8,350.7 11.3,350.3 8,350.3 8.2,350.7 "/>
<polygon id="XMLID_184_" fill="#9a1b1f" points="17.7,350.3 17.6,350.7 28.1,350.8 28,350.4 "/>
<polygon id="XMLID_183_" fill="#9a1b1f" points="17.2,351.5 17,351.9 28.6,352 28.4,351.5 "/>
<polygon id="XMLID_182_" fill="#9a1b1f" points="13.2,351.9 12.7,351.5 8.5,351.5 8.7,351.9 "/>
<polygon id="XMLID_181_" fill="#9a1b1f" points="32.4,351.6 31.9,352 36.1,352 36.3,351.6 "/>
<polygon id="XMLID_180_" fill="#9a1b1f" points="14.6,353.1 14.1,352.7 9,352.6 9.1,353 "/>
<polygon id="XMLID_179_" fill="#9a1b1f" points="30.9,352.7 30.6,353 30.5,353.1 35.6,353.2 35.8,352.7 "/>
<polygon id="XMLID_178_" fill="#9a1b1f" points="16.5,353.1 29.2,353.1 29,352.8 28.9,352.7 16.7,352.7 "/>
<polygon id="XMLID_177_" fill="#9a1b1f" points="16,353.8 15.8,354.1 15.5,353.8 9.5,353.8 9.6,354.2 35.1,354.3 35.3,353.9 "/>
<polygon id="XMLID_176_" fill="#9a1b1f" points="10,355 10.1,355.4 34.7,355.5 34.8,355.1 "/>
<polygon id="XMLID_175_" fill="#9a1b1f" points="10.4,356.2 10.6,356.6 34.2,356.7 34.3,356.3 "/>
<polygon id="XMLID_174_" fill="#9a1b1f" points="10.9,357.3 11.1,357.7 33.7,357.8 33.9,357.4 "/>
<polygon id="XMLID_173_" fill="#9a1b1f" points="11.4,358.5 11.6,358.9 33.2,359 33.4,358.6 "/>
<path id="XMLID_172_" fill="#9a1b1f" d="M26.6,359.8c0.7,0.1,1.3,0.2,1.9,0.4h4.2l0.2-0.4H26.6z"/>
<path id="XMLID_171_" fill="#9a1b1f" d="M11.9,359.7l0.2,0.4h4.4c0.6-0.2,1.3-0.3,2-0.4H11.9z"/>
<path id="XMLID_170_" fill="#9a1b1f" d="M12.4,360.9l0.2,0.4h0.2c0.3-0.1,0.6-0.3,1-0.4H12.4z"/>
<polygon id="XMLID_169_" fill="#9a1b1f" points="31.2,361 32.2,361.4 32.4,361 "/>
<path id="XMLID_168_" fill="#9a1b1f" d="M-117.7,372.8c0-0.4,0.4-0.8,0.8-0.8l13.7-0.3c0.5,0,0.8,0.3,0.8,0.8l0.1,3.4
	c0,0.4-0.4,0.8-0.8,0.8h-1.4c-0.5,0-0.8,0.4-0.8,0.8l0.3,13c0,0.4,0.4,0.8,0.9,0.8h1.4c0.5,0,0.8,0.3,0.9,0.8l0.1,3.4
	c0,0.4-0.4,0.8-0.8,0.8l-13.7,0.3c-0.5,0-0.8-0.3-0.8-0.8l-0.1-3.4c0-0.4,0.4-0.8,0.8-0.8h1.5c0.5,0,0.8-0.4,0.8-0.8l-0.3-13
	c0-0.4-0.4-0.8-0.8-0.8h-1.5c-0.5,0-0.8-0.3-0.8-0.8L-117.7,372.8z"/>
<path id="XMLID_165_" fill="#9a1b1f" d="M53,374.7c3.7,0,5.5,0,6.8-1.2c0.6-0.6,1-1.5,1-2.6c0-1.3-0.6-2.2-1.2-2.6
	c-1.3-1.3-5.9-1.1-5.9-1.1c-0.5,0-0.8,0.4-0.8,0.8L53,374.7z M57.8,360c2.6,0,6.1,0,9,1.5c2.3,1.2,4.3,3.5,4.4,7.8
	c0.1,3.4-1.2,7.4-5.8,8.8c-0.4,0.1-0.7,0.2-1.1,0.3c0.4,0,0.7,0.1,1.1,0.2c3.1,0.8,3.7,3.4,4,4.7l1.2,4.9c0.1,0.4,0.6,0.8,1,0.8h1.1
	c0.5,0,0.8,0.3,0.8,0.8l0.1,5.8c0,0.4-0.4,0.8-0.8,0.8l-9.9,0.1c-0.5,0-0.9-0.3-1-0.8L60,385.6c-0.1-0.4-0.3-1.1-0.4-1.6
	c0,0-1-3.1-6.2-2.3l0.1,6.6c0,0.4,0.4,0.8,0.8,0.8h1.2c0.5,0,0.8,0.3,0.9,0.8l0.1,5.8c0,0.4-0.4,0.8-0.8,0.8l-14.5,0.2
	c-0.5,0-0.8-0.4-0.8-0.8l-0.1-5.8c0-0.4,0.4-0.8,0.8-0.8h1.8c0.5,0,0.8-0.4,0.8-0.8l-0.3-20.1c0-0.4-0.4-0.8-0.8-0.8l-1.8,0.1
	c-0.5,0-0.8-0.3-0.8-0.8l-0.1-5.9c0-0.4,0.4-0.8,0.8-0.8L57.8,360z"/>
<path id="XMLID_164_" fill="#9a1b1f" d="M-99.8,361.2c0-0.4,0.4-0.8,0.8-0.8l12.9,0.1c0.5,0,0.9,0.4,1.1,0.8l6.6,20.5
	c0.1,0.4,0.2,0.4,0.2,0V367c0-0.4-0.4-0.8-0.8-0.8h-0.4c-0.5,0-0.8-0.4-0.8-0.8v-4c0-0.4,0.4-0.8,0.8-0.8l9.8,0.1
	c0.5,0,0.8,0.4,0.8,0.8v4c0,0.4-0.4,0.8-0.8,0.8h-1.2c-0.5,0-0.8,0.4-0.8,0.8l-0.1,20.2c0,0.4-0.4,0.8-0.8,0.8l-10.2-0.1
	c-0.5,0-0.9-0.3-1.1-0.8l-6.5-20.3c-0.1-0.4-0.2-0.4-0.2,0l0.1,14.6c0,0.4,0.4,0.8,0.8,0.8h0.5c0.5,0,0.8,0.4,0.8,0.8v4
	c0,0.4-0.4,0.8-0.8,0.8l-10-0.1c-0.5,0-0.8-0.4-0.8-0.8v-4c0-0.4,0.4-0.8,0.8-0.8h1.3c0.5,0,0.8-0.3,0.8-0.8l0.1-14.8
	c0-0.4-0.4-0.8-0.8-0.8H-99c-0.5,0-0.8-0.4-0.8-0.8L-99.8,361.2z"/>
<path id="XMLID_163_" fill="#9a1b1f" d="M-9.5,396.5h-0.2c-4,0-6.4-1.4-7.8-2.7l-0.1,0.8c-0.1,0.8-0.7,1.4-1.5,1.4l-5.3-0.1
	c-0.4,0-0.8-0.2-1-0.4c-0.3-0.3-0.4-0.6-0.4-1l0.6-10.7c0-0.8,0.7-1.4,1.5-1.4l6,0.1l0.6,0.5c0.1,0.6,1,5.5,5.4,5.6
	c2,0,3.5-1.2,3.5-2.7c0-2.4-3.3-3.5-5.3-4.2c-1.6-0.5-3.1-1-4.7-1.7c-5.8-2.6-7-6.8-7-10c0-4.1,2.1-6.6,3.3-7.8
	c2.2-2.1,4.9-3.1,8.2-3.1h0.3c3.3,0,5.9,0.9,7.9,2.6l0.1-0.7c0.1-0.8,0.7-1.4,1.5-1.4h4.8c0.8,0,1.5,0.6,1.5,1.4l0.8,10.2
	c0,0.4-0.1,0.7-0.4,1c-0.3,0.3-0.6,0.4-1,0.4l-5.3-0.1c-0.8,0-1.5-0.6-1.6-1.3c0,0-0.3-2.2-1.5-3.4c-1.1-1.1-3.4-1.2-4.1-1.2
	c-2.2,0-3.8,1.4-3.8,2.6c0,1.1,0.6,1.7,0.7,1.9c0.7,0.7,1.8,1.1,5,2.3l0.6,0.2c4.9,1.8,11,4.1,10.9,11.9
	C2.7,390.7-0.5,396.5-9.5,396.5"/>
<path id="XMLID_162_" fill="#9a1b1f" d="M-70.7,395.6c0,0.5-0.4,0.8-0.9,0.8h-25.9c-0.5,0-0.9-0.4-0.9-0.8v-3.2
	c0-0.5,0.4-0.8,0.9-0.8h25.9c0.5,0,0.9,0.4,0.9,0.8V395.6z"/>
<path id="XMLID_159_" fill="#9a1b1f" d="M-38,378.5c0,8.7-4.9,9.6-4.9,9.6c-1.5,0.4-4,0.3-6.4,0.3h-2v-20h2c2.3,0,4.7,0,6.3,0.4
	C-37.4,370.3-38,378.5-38,378.5 M-40.6,360.7c-2.7-0.4-9.4-0.5-9.4-0.5c-0.5,0-1.2,0-1.7,0H-64c-0.5,0-0.8,0.4-0.8,0.8v6.7
	c0,0.4,0.4,0.8,0.8,0.8h3.2c0.5,0,0.8,0.4,0.8,0.8v18.1c0,0.5-0.4,0.8-0.8,0.8h-5.5c-0.5,0-0.8,0.4-0.8,0.8v6.7
	c0,0.4,0.4,0.8,0.8,0.8h19.6c3.2,0,5.5-0.1,7-0.4c0,0,12-0.8,12-17.7C-27.7,378.5-27.1,362.6-40.6,360.7"/>
<path id="XMLID_156_" fill="#9a1b1f" d="M26.7,380.4c0,3.1-0.3,5.6-0.7,6.8c-0.4,1.1-2,1.8-3.4,1.9l0,0c-1.4,0-2.9-0.7-3.3-1.8
	c-0.6-1.2-0.8-3.4-0.8-6.5s0.5-5.6,1-6.7c0.5-1,1.7-1.6,3.1-1.6l0,0c1.4,0,2.9,0.5,3.4,1.7C26.4,375.4,26.7,377.3,26.7,380.4
	 M38.2,375.4c-0.6-1.9-1.6-3.7-3-5.4c-2.7-3.4-6.7-5.3-12-5.5c-0.4,0-0.7,0-1.1,0c-0.8,0-1.6,0.1-2.4,0.1c-1.1,0.1-2.1,0.4-3.1,0.7
	s-1.9,0.7-2.8,1.3c-2.6,1.6-4.5,3.5-5.8,5.9c-1.3,2.4-2.1,4.9-2.2,7.5c-0.2,4.8,1.1,8.8,4,11.9c2.9,3.2,6.8,4.9,11.8,5.1
	c0.4,0,0.7,0,1.1,0c4.6,0,8.4-1.4,11.3-4.3c3.2-3.1,4.9-6.8,5.1-11.2C39.1,379.3,38.9,377.3,38.2,375.4"/>
</svg>
